<?xml version="1.0" encoding="UTF-8" standalone="no"?>
<!-- Created with Inkscape (http://www.inkscape.org/) -->
<svg
   xmlns:dc="http://purl.org/dc/elements/1.1/"
   xmlns:cc="http://creativecommons.org/ns#"
   xmlns:rdf="http://www.w3.org/1999/02/22-rdf-syntax-ns#"
   xmlns:svg="http://www.w3.org/2000/svg"
   xmlns="http://www.w3.org/2000/svg"
   xmlns:sodipodi="http://sodipodi.sourceforge.net/DTD/sodipodi-0.dtd"
   xmlns:inkscape="http://www.inkscape.org/namespaces/inkscape"
   width="1280"
   height="377"
   id="svg2"
   sodipodi:version="0.32"
   inkscape:version="0.46"
   version="1.0"
   sodipodi:docname="Haifa_wikimania_skyline.svg"
   inkscape:output_extension="org.inkscape.output.svg.inkscape">
  <defs
     id="defs4">
    <inkscape:perspective
       sodipodi:type="inkscape:persp3d"
       inkscape:vp_x="0 : 526.18109 : 1"
       inkscape:vp_y="0 : 1000 : 0"
       inkscape:vp_z="744.09448 : 526.18109 : 1"
       inkscape:persp3d-origin="372.04724 : 350.78739 : 1"
       id="perspective10" />
    <inkscape:perspective
       id="perspective2390"
       inkscape:persp3d-origin="372.04724 : 350.78739 : 1"
       inkscape:vp_z="744.09448 : 526.18109 : 1"
       inkscape:vp_y="0 : 1000 : 0"
       inkscape:vp_x="0 : 526.18109 : 1"
       sodipodi:type="inkscape:persp3d" />
  </defs>
  <sodipodi:namedview
     id="base"
     pagecolor="#ffffff"
     bordercolor="#666666"
     borderopacity="1.0"
     gridtolerance="10000"
     guidetolerance="10"
     objecttolerance="10"
     inkscape:pageopacity="0.0"
     inkscape:pageshadow="2"
     inkscape:zoom="0.5"
     inkscape:cx="711.85567"
     inkscape:cy="223.41915"
     inkscape:document-units="px"
     inkscape:current-layer="layer1"
     showgrid="false"
     inkscape:window-width="1279"
     inkscape:window-height="949"
     inkscape:window-x="0"
     inkscape:window-y="25" />
  <metadata
     id="metadata7">
    <rdf:RDF>
      <cc:Work
         rdf:about="">
        <dc:format>image/svg+xml</dc:format>
        <dc:type
           rdf:resource="http://purl.org/dc/dcmitype/StillImage" />
      </cc:Work>
    </rdf:RDF>
  </metadata>
  <g
     inkscape:label="Layer 1"
     inkscape:groupmode="layer"
     id="layer1">
    <path
       style="fill:#1c98cf;fill-opacity:1"
       d="M 2.5264059e-17,267.24402 L 5.0528119e-17,157.48803 L 9.75,157.58285 L 19.5,157.67767 L 22.70034,159.33883 L 25.90068,161 L 30.293299,161 L 34.685917,161 L 35.342958,144.34029 C 35.704331,135.17745 36,123.58029 36,118.56883 L 36,109.45708 L 41.758361,103.89711 L 47.516721,98.33714 L 55.008361,98.91857 L 62.5,99.5 L 62.820189,102.28904 L 63.140379,105.07808 L 65.820189,105.61351 L 68.5,106.14895 L 68.162511,135.92656 L 67.825022,165.70417 L 72.552082,166.35208 C 75.151965,166.70844 78.057179,167 79.008112,167 L 80.737082,167 L 81.193748,142.32204 L 81.650414,117.64407 L 83.825207,116.20006 L 86,114.75606 L 86,113.49439 L 86,112.23272 L 89.918977,108.69216 L 93.837953,105.1516 L 94.554402,92.5758 L 95.270851,80 L 96.255705,80 L 97.24056,80 L 96.507107,92.71637 L 95.773654,105.43274 L 97.49504,104.00412 L 99.216425,102.57549 L 100.60821,104.47888 L 102,106.38226 L 102,101.69113 L 102,97 L 103,97 L 104,97 L 104,101.39301 L 104,105.78602 L 105.5,106.36163 L 107,106.93723 L 107,110.46862 L 107,114 L 108.5,114 L 110,114 L 110,142.39301 L 110,170.78602 L 111.25,171.26139 C 112.45302,171.71889 117.53214,172.56817 134.33448,175.12134 L 142.16896,176.31182 L 143.60381,177.74667 L 145.03866,179.18152 L 167.01933,178.45444 L 189,177.72737 L 189,175.94547 C 189,174.96543 189.27314,173.45177 189.60699,172.58179 L 190.21398,171 L 195.17273,171 L 200.13148,171 L 201.98446,171.99168 L 203.83744,172.98337 L 204.46099,175.82239 L 205.08454,178.66141 L 210.29227,180.29395 C 213.15652,181.19184 222.28983,183.48139 230.58851,185.38184 C 238.88718,187.28228 249.46218,189.97841 254.08851,191.37324 C 258.71483,192.76806 269.925,195.75962 279,198.02114 L 295.5,202.13299 L 305.04725,207.99005 L 314.59451,213.84711 L 320.74529,213.28938 L 326.89606,212.73165 L 327.19803,210.61582 L 327.5,208.5 L 331.1072,208.19815 L 334.7144,207.8963 L 335.93303,210.83831 L 337.15165,213.78033 L 340.32583,214.42199 C 342.07162,214.7749 350.19583,215.49292 358.37963,216.01758 L 373.25926,216.97152 L 377.59615,220.52528 L 381.93304,224.07903 L 393.71652,225.07483 L 405.5,226.07062 L 409,227.17064 C 414.75926,228.98071 419.60337,231.74033 425.61124,236.63381 L 431.29721,241.26509 L 436.99399,243.49764 L 442.69077,245.7302 L 450.4109,251.8651 C 454.65697,255.23929 458.36019,258 458.64029,258 C 458.92038,258 458.97786,255.7178 458.76801,252.92844 L 458.38647,247.85689 L 456.94324,246.95896 L 455.5,246.06103 L 456.75,244.04408 L 458,242.02714 L 458.00816,239.76357 L 458.01632,237.5 L 460.86913,232.53796 L 463.72193,227.57592 L 468.58331,224.95508 L 473.4447,222.33425 L 474.52018,217.91713 L 475.59566,213.5 L 477.04783,213.5 L 478.5,213.5 L 478.22348,215.17459 L 477.94696,216.84919 L 478.97348,217.48361 L 480,218.11803 L 480.00289,220.30902 L 480.00579,222.5 L 484.75289,225 L 489.5,227.5 L 492.22664,232.5 C 493.72629,235.25 494.96379,238.29361 494.97664,239.26357 C 494.98949,240.23353 495.55825,241.92103 496.24055,243.01357 L 497.48109,245 L 496.24055,246.98643 L 495,248.97286 L 495,255.98643 L 495,263 L 497.88992,263 C 499.47938,263 505.21688,263.94915 510.63992,265.10922 L 520.5,267.21845 L 533.5,268.1199 C 540.65,268.6157 550.256,269.22503 554.84667,269.47397 C 559.43734,269.72291 564.04984,270.19843 565.09667,270.53068 L 567,271.13478 L 567,268.06739 L 567,265 L 570.89301,265 L 574.78602,265 L 575.39301,266.58179 C 575.72686,267.45177 576,269.02677 576,270.08179 L 576,272 L 591.375,272 L 606.75,272 L 609.875,271.375 L 613,270.75 L 613,253.49371 L 613,236.23743 L 617.67196,235.06102 L 622.34392,233.8846 L 630.8782,234.08986 C 635.57206,234.20274 640.21968,234.50619 641.20624,234.76419 L 643,235.23326 L 643,254.03718 L 643,272.84109 L 645.75,273.37537 C 647.2625,273.66922 652.96225,274.21409 658.41611,274.58619 L 668.33223,275.26275 L 673.73066,277.73423 L 679.12909,280.20571 L 680.53274,278.35286 C 681.30475,277.33379 681.9507,275.74464 681.9682,274.82143 L 682,273.14286 L 683.41108,271.73177 L 684.82217,270.32069 L 685.99732,258.41034 C 686.64365,251.85965 687.47306,244.025 687.84046,241 L 688.50846,235.5 L 698.75423,235.21502 L 709,234.93003 L 709,259.12051 L 709,283.31099 L 732.75,282.67151 C 745.8125,282.3198 765.90059,281.57551 777.39019,281.01753 L 798.28038,280.00303 L 808.39019,281.59944 C 813.95059,282.47747 823.24946,284.26296 829.05436,285.5672 L 839.60872,287.93855 L 904.47037,289.48005 C 940.14428,290.32788 971.7182,291.302 974.63464,291.64477 L 979.93725,292.26799 L 978.96862,288.8906 L 978,285.5132 L 978.03489,271.0066 L 978.06978,256.5 L 979.51521,248.5 L 980.96065,240.5 L 980.98033,234.33179 C 980.99115,230.93927 981.27314,227.45177 981.60699,226.58179 L 982.21398,225 L 984.07671,225 L 985.93944,225 L 989.46972,217.35917 L 993,209.71834 L 993,207.35917 L 993,205 L 994.06872,205 L 995.13745,205 L 994.45421,212.83244 L 993.77098,220.66489 L 998.13549,220.07538 L 1002.5,219.48588 L 1002.6202,212.99294 C 1002.6863,209.42182 1002.7988,203.6875 1002.8702,200.25 L 1003,194 L 1004,194 L 1005,194 L 1005.0037,197.25 L 1005.0075,200.5 L 1006.8333,203.5 C 1007.8376,205.15 1009.6541,209.875 1010.8701,214 C 1012.0861,218.125 1013.491,222.4 1013.9922,223.5 C 1015.1719,226.08888 1015.949,233.54793 1016.621,248.73108 L 1017.1623,260.96216 L 1015.9485,267.73108 C 1015.2808,271.45399 1014.5271,278.8875 1014.2736,284.25 L 1013.8126,294 L 1016.1563,294.06679 C 1028.8581,294.42873 1048.3234,295.27453 1072.4658,296.5135 L 1101.4316,298 L 1133.0649,298 L 1164.6982,298 L 1172.3491,297.35326 L 1180,296.70653 L 1180,295.35326 L 1180,294 L 1186,294 L 1192,294 L 1192,293 L 1192,292 L 1187.5,292 L 1183,292 L 1182.9854,291.25 C 1182.9452,289.18253 1192.4755,251.36124 1193.2537,250.5 L 1194.1573,249.5 L 1193.8287,271.75043 L 1193.5,294.00086 L 1201.75,294.00043 L 1210,294 L 1210,293 L 1210,292 L 1203.5,292 L 1197,292 L 1196.9926,290.75 C 1196.9805,288.70078 1211.4547,235.0244 1212.0228,235.01169 C 1212.3104,235.00526 1216.1054,247.825 1220.4562,263.5 L 1228.3668,292 L 1232.8577,292 L 1237.3486,292 L 1234.9475,294.55588 L 1232.5464,297.11176 L 1254.5232,296.79215 L 1276.5,296.47253 L 1278.25,295.62928 L 1280,294.78602 L 1280,298.89301 L 1280,303 L 1268.25,302.97683 C 1255.1289,302.95095 1197.8325,301.77079 1100.5,299.52161 C 1064.75,298.6955 1030.6625,298.01518 1024.75,298.00979 L 1014,298 L 1014,300.78037 L 1014,303.56074 L 1024.1389,304.77323 L 1034.2779,305.98571 L 1035.3889,306.86254 C 1036,307.34479 1047.75,311.00666 1061.5,315.00002 L 1086.5,322.26068 L 1151.5,321.64446 L 1216.5,321.02823 L 1236.5,319.99595 L 1256.5,318.96367 L 1262,317.89698 L 1267.5,316.83029 L 1271,314.58425 C 1272.925,313.34893 1275.7375,311.53537 1277.25,310.5541 L 1280,308.76998 L 1280,342.88499 L 1280,377 L 640,377 L 0,377 L 2.5264059e-17,267.24402 z M 980,299.61603 L 980,297.23207 L 960.25,296.62286 C 949.3875,296.2878 927.9,295.80561 912.5,295.55133 L 884.5,295.089 L 894.5,296.98235 L 904.5,298.87569 L 915.5,299.02692 C 921.55,299.1101 935.725,299.74617 947,300.44042 C 958.275,301.13466 970.3125,301.76958 973.75,301.85134 L 980,302 L 980,299.61603 z M 1219.2904,293.44207 L 1220.7443,292.88414 L 1216.8003,277.20352 C 1214.6311,268.57918 1212.6636,261.33025 1212.4281,261.09478 C 1212.1927,260.85932 1212,268.16667 1212,277.33333 L 1212,294 L 1214.9182,294 C 1216.5232,294 1218.4907,293.74893 1219.2904,293.44207 z M 1224.3544,283.15642 C 1223.0317,278.39539 1220.0503,267.525 1217.729,259 L 1213.5085,243.5 L 1212.7528,249.5 L 1211.9971,255.5 L 1213.353,259 C 1214.0988,260.925 1216.3851,269.29329 1218.4337,277.5962 L 1222.1583,292.69239 L 1224.4588,292.25262 L 1226.7594,291.81284 L 1224.3544,283.15642 z"
       id="path2410" />
    <path
       style="fill:#000000"
       d=""
       id="path2406" />
    <path
       style="fill:#000000"
       d=""
       id="path2404" />
  </g>
</svg>
